<svg width="6" height="8" viewBox="0 0 6 8" fill="none" xmlns="http://www.w3.org/2000/svg">
<path d="M5.20711 1.70711C5.59763 1.31658 5.59763 0.683417 5.20711 0.292893C4.81658 -0.0976311 4.18342 -0.0976311 3.79289 0.292893L5.20711 1.70711ZM1.5 4L0.792893 3.29289C0.402369 3.68342 0.402369 4.31658 0.792893 4.70711L1.5 4ZM3.79289 7.70711C4.18342 8.09763 4.81658 8.09763 5.20711 7.70711C5.59763 7.31658 5.59763 6.68342 5.20711 6.29289L3.79289 7.70711ZM3.79289 0.292893L0.792893 3.29289L2.20711 4.70711L5.20711 1.70711L3.79289 0.292893ZM0.792893 4.70711L3.79289 7.70711L5.20711 6.29289L2.20711 3.29289L0.792893 4.70711Z" fill="white"/>
</svg>
