<svg width="16" height="17" viewBox="0 0 16 17" fill="none" xmlns="http://www.w3.org/2000/svg">
<g clip-path="url(#clip0)">
<path d="M5.83869 3.41183C5.83869 3.81215 5.83869 5.59896 5.83869 5.59896H4.23633V8.27339H5.83869V16.2209H9.13028V8.27361H11.3391C11.3391 8.27361 11.5459 6.99124 11.6462 5.5891C11.3587 5.5891 9.14272 5.5891 9.14272 5.5891C9.14272 5.5891 9.14272 4.0332 9.14272 3.76048C9.14272 3.48717 9.50161 3.11954 9.85632 3.11954C10.2104 3.11954 10.9576 3.11954 11.6497 3.11954C11.6497 2.75541 11.6497 1.49727 11.6497 0.3353C10.7258 0.3353 9.67464 0.3353 9.21131 0.3353C5.75732 0.335116 5.83869 3.01221 5.83869 3.41183Z" fill="white"/>
</g>
<defs>
<clipPath id="clip0">
<rect width="15.8856" height="15.8856" fill="white" transform="translate(0 0.33527)"/>
</clipPath>
</defs>
</svg>
