<svg width="275" height="75" viewBox="0 0 275 75" fill="none" xmlns="http://www.w3.org/2000/svg">
<g clip-path="url(#clip0)">
<path fill-rule="evenodd" clip-rule="evenodd" d="M21.7509 57.1668H32.6551V12.2634H54.6247V2.67891H0V12.2634H21.7509V57.1668Z" fill="#434951"/>
<path fill-rule="evenodd" clip-rule="evenodd" d="M148.882 57.1663H159.786V12.2629H181.754V2.67845H127.129V12.2629H148.882V57.1663Z" fill="#434951"/>
<path d="M204.963 2.67891H194.057V57.1668H204.963V2.67891Z" fill="#434951"/>
<path fill-rule="evenodd" clip-rule="evenodd" d="M216.338 42.822C216.411 46.0283 216.937 48.6885 217.902 50.7355C218.928 52.9042 220.592 54.4769 222.989 55.5379C225.43 56.6176 228.831 57.1668 233.096 57.1668H258.234C262.229 57.1668 265.498 56.5942 267.954 55.4614C270.346 54.3615 272.128 52.6218 273.257 50.2893C274.414 47.899 275 44.7427 275 40.9107C275 37.1755 274.648 34.1815 273.95 32.0143C273.275 29.9252 272.28 28.3556 270.989 27.3539C269.676 26.3335 268.049 25.6501 266.16 25.3256C264.186 24.9871 261.543 24.8139 258.308 24.8139H235.588C233.395 24.8139 231.771 24.3988 230.627 23.5485C229.404 22.6436 228.81 20.9273 228.81 18.2999C228.81 13.9859 231.152 11.7064 235.588 11.7064H256.495C259.207 11.7064 261.006 12.1776 261.996 13.1496C262.846 13.9843 263.378 15.2606 263.589 16.9503H274.552C274.473 13.8033 273.891 11.179 272.821 9.14137C271.689 6.9867 269.881 5.36094 267.439 4.30935C264.933 3.22655 261.608 2.67579 257.557 2.67579H236.411C232.959 2.67579 230.026 2.96911 227.686 3.54172C225.402 4.1034 223.517 4.98337 222.089 6.15978C220.681 7.32059 219.625 8.85897 218.947 10.7344C218.254 12.6581 217.905 15.0156 217.905 17.7382C217.905 21.1801 218.241 24.001 218.905 26.1245C219.542 28.173 220.557 29.7613 221.917 30.8488C223.299 31.955 225.154 32.7336 227.429 33.1673C229.78 33.6167 232.826 33.846 236.484 33.846H254.922C257.297 33.846 259.116 34.1081 260.479 34.648C261.918 35.2206 262.914 36.0694 263.438 37.1724C263.925 38.1975 264.173 39.5128 264.173 41.0792C264.173 43.5444 263.406 45.3699 261.895 46.5057C260.431 47.6026 258.275 48.1362 255.309 48.1362H234.456C232.557 48.1362 230.92 47.5292 229.583 46.3357C228.443 45.3137 227.773 44.1357 227.585 42.822H216.338Z" fill="#434951"/>
<path fill-rule="evenodd" clip-rule="evenodd" d="M194.057 74.6414H195.489V71.833H199.76C200.428 71.833 200.969 71.7316 201.371 71.5287C201.753 71.3368 202.024 71.0388 202.204 70.6176C202.395 70.1698 202.494 69.5597 202.497 68.8077C202.497 68.2304 202.443 67.7405 202.333 67.352C202.232 66.9869 202.075 66.692 201.87 66.4736C201.666 66.2567 201.396 66.0945 201.067 65.9899C200.715 65.8792 200.267 65.823 199.735 65.823H194.057V74.6414ZM199.352 70.6301H195.489V67.0275H199.352C199.989 67.0275 200.427 67.1788 200.692 67.4924C200.941 67.7873 201.064 68.218 201.064 68.8093C201.064 69.2118 201.017 69.5301 200.92 69.7844C200.807 70.0777 200.608 70.2977 200.332 70.4397C200.081 70.5677 199.76 70.6301 199.352 70.6301Z" fill="#12416D"/>
<path fill-rule="evenodd" clip-rule="evenodd" d="M213.657 74.6429H215.101V65.8245H213.657V69.4676H207.533V65.8245H206.103V74.6429H207.533V70.6721H213.657V74.6429Z" fill="#12416D"/>
<path fill-rule="evenodd" clip-rule="evenodd" d="M228.272 74.6429H229.992L225.684 65.8229H222.978L218.637 74.6429H220.34L221.486 72.2495H227.14L228.272 74.6429ZM226.613 71.1386H221.999L224.082 66.9213H224.606L226.613 71.1386Z" fill="#12416D"/>
<path fill-rule="evenodd" clip-rule="evenodd" d="M241.368 74.6429H242.812V73.0124C242.812 72.7035 242.764 72.4664 242.664 72.3057C242.567 72.1434 242.461 72.0311 242.353 71.9718C242.202 71.8891 241.939 71.7689 241.571 71.616L240.965 71.3633L241.52 71.0107C241.87 70.7876 242.15 70.5098 242.353 70.1837C242.548 69.8701 242.647 69.4114 242.647 68.8232C242.647 68.2038 242.576 67.6889 242.44 67.2895C242.309 66.9088 242.125 66.6124 241.897 66.4064C241.663 66.1958 241.38 66.0476 241.059 65.9602C240.715 65.8682 240.307 65.8213 239.846 65.8213H233.486V74.6413H234.93V71.8204H239.353C240.042 71.8204 240.535 71.9484 240.859 72.2136C241.197 72.4929 241.371 72.9266 241.371 73.5055V74.6429H241.368ZM239.668 70.6175H234.916V67.0274H239.668C240.234 67.0274 240.644 67.185 240.884 67.4955C241.107 67.7841 241.216 68.2179 241.216 68.8217C241.208 69.4302 241.093 69.8623 240.864 70.151C240.62 70.4615 240.217 70.6175 239.668 70.6175Z" fill="#12416D"/>
<path fill-rule="evenodd" clip-rule="evenodd" d="M258.575 74.6429H260.006V65.8245H256.65L253.727 73.44H253.133L250.205 65.8245H246.85V74.6429H248.282V67.0305H249.13L252.159 74.6429H254.697L257.725 67.0305H258.575V74.6429Z" fill="#12416D"/>
<path fill-rule="evenodd" clip-rule="evenodd" d="M273.28 74.6429H275L270.692 65.8229H267.985L263.645 74.6429H265.346L266.493 72.2495H272.148L273.28 74.6429ZM271.621 71.1386H267.007L269.09 66.9213H269.615L271.621 71.1386Z" fill="#12416D"/>
<path fill-rule="evenodd" clip-rule="evenodd" d="M120.287 9.93709C118.984 7.08187 117.058 5.14407 114.397 4.01446C111.678 2.85989 107.987 2.27481 103.423 2.27481H79.5331C75.7815 2.27481 72.6534 2.60558 70.2356 3.25775C67.8861 3.88808 65.9599 4.9506 64.5145 6.41409C63.066 7.87759 61.9912 9.88248 61.3166 12.3757C60.6234 14.9345 60.2744 18.2484 60.2744 22.2239V40.0183C60.2744 43.5226 60.6327 46.5213 61.3414 48.9303C62.0315 51.2878 63.1389 53.249 64.6293 54.7562C66.1196 56.2649 68.0892 57.3914 70.4822 58.1029C72.9341 58.8331 75.9801 59.2029 79.5331 59.2029H103.423C107.131 59.2029 110.256 58.8471 112.708 58.1419C115.096 57.457 117 56.3788 118.373 54.9341C119.749 53.4846 120.75 51.564 121.351 49.2268C121.969 46.8162 122.283 43.7176 122.283 40.0183V22.2223C122.281 16.969 121.61 12.836 120.287 9.93709ZM72.4704 52.5672C70.4341 51.7574 68.9701 50.3392 68.1203 48.3452C67.3122 46.462 66.9028 43.8986 66.8718 40.5191V21.9181C66.954 18.1657 67.3867 15.387 68.1962 13.4024C69.0523 11.3054 70.535 9.81227 72.6054 8.96663C74.5626 8.16623 77.2611 7.77617 80.8498 7.77617H82.8457C82.5154 18.1798 85.7226 23.0914 90.5644 29.1887C92.123 31.1515 93.7669 33.1564 94.896 34.9912C98.998 41.6643 99.0523 47.8257 97.8736 53.7046H80.5644C77.0393 53.703 74.392 53.3317 72.4704 52.5672ZM105.904 53.5377C104.749 53.6484 103.457 53.7031 102.014 53.7031H100.966C101.876 48.5886 101.56 43.6692 100.183 39.1898C99.0461 35.4921 96.2235 31.3013 93.7592 28.4242C90.3768 24.2584 87.8814 20.868 86.7787 16.8614C85.9211 13.7472 85.6233 10.9138 85.8544 7.77617H90.6001C90.3054 14.0358 91.8408 20.0567 97.3107 26.7423C99.195 29.1466 100.726 31.1921 102.165 33.2453C107.543 40.9201 107.281 48.2953 105.904 53.5377Z" fill="#12416D"/>
</g>
<defs>
<clipPath id="clip0">
<rect width="275" height="74.6429" fill="white"/>
</clipPath>
</defs>
</svg>
