<svg width="17" height="19" viewBox="0 0 17 19" fill="none" xmlns="http://www.w3.org/2000/svg">
<path d="M14.3511 13.3187H13.2345L13.2397 12.7382C13.2397 12.4803 13.4764 12.2693 13.7656 12.2693H13.8368C14.1266 12.2693 14.364 12.4803 14.364 12.7382L14.3511 13.3187ZM10.1629 12.0749C9.87961 12.0749 9.64789 12.2452 9.64789 12.4538V15.2767C9.64789 15.4849 9.87961 15.6548 10.1629 15.6548C10.4473 15.6548 10.6792 15.4849 10.6792 15.2767V12.4538C10.6792 12.245 10.4473 12.0749 10.1629 12.0749ZM16.9647 10.4958V15.866C16.9647 17.1541 15.7166 18.2082 14.1908 18.2082H2.78342C1.2572 18.2082 0.00927734 17.1541 0.00927734 15.866V10.4958C0.00927734 9.20768 1.2572 8.15343 2.78342 8.15343H14.1908C15.7166 8.15343 16.9647 9.20768 16.9647 10.4958ZM3.54438 16.4491L3.54347 10.7922L4.95756 10.7926V9.95442L1.18802 9.94936V10.7734L2.36473 10.7764V16.4491H3.54438ZM7.78324 11.6348H6.60427V14.6556C6.60427 15.0926 6.63388 15.3111 6.60246 15.3881C6.50661 15.6224 6.07571 15.8713 5.90774 15.4134C5.87925 15.3333 5.90435 15.0916 5.9039 14.6764L5.89915 11.6348H4.72674L4.73035 14.6287C4.73126 15.0875 4.71882 15.4296 4.73442 15.5854C4.76313 15.8599 4.75296 16.18 5.03759 16.3629C5.56795 16.7048 6.5846 16.3119 6.83893 15.8231L6.83667 16.4469L7.78346 16.4479L7.78324 11.6348ZM11.5548 15.094L11.5523 12.5798C11.5514 11.6217 10.7504 11.0479 9.66326 11.8232L9.66801 9.95401L8.49039 9.95563L8.48474 16.4074L9.45324 16.3949L9.54141 15.9931C10.7787 17.0089 11.5566 16.3127 11.5548 15.094ZM15.2445 14.7608L14.3606 14.765C14.3601 14.7964 14.3588 14.8326 14.3583 14.872V15.3135C14.3583 15.5498 14.1402 15.7422 13.8752 15.7422H13.702C13.4366 15.7422 13.2185 15.5498 13.2185 15.3135V15.2645V14.779V14.1524H15.2427V13.4706C15.2427 12.9723 15.2285 12.4742 15.1824 12.1894C15.0375 11.2883 13.6241 11.1452 12.9101 11.6065C12.6861 11.7506 12.5149 11.9434 12.4155 12.2023C12.3151 12.4615 12.2651 12.8155 12.2651 13.2653V14.7644C12.2656 17.2565 15.6481 16.9043 15.2445 14.7608ZM10.71 6.62212C10.7708 6.75443 10.8653 6.86166 10.9935 6.94258C11.1201 7.02229 11.2819 7.06235 11.4759 7.06235C11.6459 7.06235 11.7965 7.02128 11.9276 6.93651C12.0583 6.85215 12.1684 6.72611 12.2583 6.55798L12.236 6.97192H13.5501V1.97053H12.5156V5.86304C12.5156 6.07385 12.3216 6.24642 12.0845 6.24642C11.8487 6.24642 11.6541 6.07385 11.6541 5.86304V1.97053H10.5743V5.3439C10.5743 5.77362 10.5831 6.06009 10.5974 6.20535C10.6121 6.3496 10.6492 6.48798 10.71 6.62212ZM6.72748 3.79742C6.72748 3.31733 6.77224 2.94244 6.86109 2.67215C6.95061 2.40287 7.11135 2.1864 7.3442 2.02313C7.57638 1.85906 7.87367 1.77692 8.23516 1.77692C8.53923 1.77692 8.79966 1.83033 9.01714 1.93492C9.23575 2.04013 9.40441 2.17669 9.52129 2.34522C9.64043 2.51435 9.72136 2.68814 9.76454 2.86597C9.80862 3.04623 9.83033 3.31814 9.83033 3.68493V4.9498C9.83033 5.4137 9.80953 5.755 9.76906 5.97168C9.72905 6.18896 9.64314 6.39047 9.50998 6.57943C9.37886 6.76637 9.20953 6.90617 9.00426 6.99539C8.79672 7.08541 8.55935 7.12952 8.29122 7.12952C7.99168 7.12952 7.73938 7.0925 7.53139 7.01521C7.32273 6.93833 7.16154 6.82241 7.04669 6.66845C6.93072 6.51428 6.84911 6.32654 6.79982 6.10764C6.75031 5.88893 6.7268 5.55997 6.7268 5.12156L6.72748 3.79742ZM7.75679 5.78414C7.75679 6.06737 7.99236 6.29862 8.27924 6.29862C8.56635 6.29862 8.80102 6.06737 8.80102 5.78414V3.12169C8.80102 2.83886 8.56635 2.60762 8.27924 2.60762C7.99236 2.60762 7.75679 2.83886 7.75679 3.12169V5.78414ZM4.11973 7.12851H5.35951L5.36087 3.29265L6.82582 0.00667634H5.46984L4.69102 2.44738L3.90112 0H2.55915L4.1177 3.29447L4.11973 7.12851Z" fill="white"/>
</svg>
