<svg width="16" height="16" viewBox="0 0 16 16" fill="none" xmlns="http://www.w3.org/2000/svg">
<g clip-path="url(#clip0)">
<path d="M11.6161 0.213879H4.49824C2.08105 0.213879 0.114502 2.1675 0.114502 4.56868V11.6394C0.114502 14.0407 2.08105 15.9942 4.49824 15.9942H11.6161C14.0335 15.9942 16 14.0406 16 11.6394V4.56868C16.0001 2.1675 14.0335 0.213879 11.6161 0.213879ZM14.5907 11.6394C14.5907 13.2687 13.2563 14.5941 11.6162 14.5941H4.49824C2.85822 14.5942 1.52394 13.2687 1.52394 11.6394V4.56868C1.52394 2.93952 2.85822 1.61399 4.49824 1.61399H11.6161C13.2562 1.61399 14.5906 2.93952 14.5906 4.56868V11.6394H14.5907Z" fill="white"/>
<path d="M8.05766 4.03804C5.80058 4.03804 3.96436 5.8621 3.96436 8.10423C3.96436 10.3463 5.80058 12.1702 8.05766 12.1702C10.3147 12.1702 12.151 10.3463 12.151 8.10423C12.151 5.8621 10.3147 4.03804 8.05766 4.03804ZM8.05766 10.77C6.57784 10.77 5.3738 9.57416 5.3738 8.10414C5.3738 6.63403 6.57774 5.43805 8.05766 5.43805C9.53757 5.43805 10.7415 6.63403 10.7415 8.10414C10.7415 9.57416 9.53748 10.77 8.05766 10.77Z" fill="white"/>
<path d="M12.3224 2.85083C12.0509 2.85083 11.7841 2.96004 11.5923 3.15139C11.3996 3.34181 11.2888 3.60689 11.2888 3.87758C11.2888 4.14743 11.3997 4.41242 11.5923 4.60377C11.784 4.79418 12.0509 4.90433 12.3224 4.90433C12.5949 4.90433 12.8608 4.79418 13.0534 4.60377C13.246 4.41242 13.356 4.14733 13.356 3.87758C13.356 3.60689 13.246 3.34181 13.0534 3.15139C12.8617 2.96004 12.5949 2.85083 12.3224 2.85083Z" fill="white"/>
</g>
<defs>
<clipPath id="clip0">
<rect width="15.8856" height="15.7804" fill="white" transform="translate(0.114502 0.213879)"/>
</clipPath>
</defs>
</svg>
